<?xml version="1.0" standalone="no"?><svg xmlns="http://www.w3.org/2000/svg" viewBox="0 0 1440 320"><path fill="#ffffff" fill-opacity="1" d="M0,128L30,117.3C60,107,120,85,180,96C240,107,300,149,360,149.3C420,149,480,107,540,80C600,53,660,43,720,74.7C780,107,840,181,900,218.7C960,256,1020,256,1080,218.7C1140,181,1200,107,1260,80C1320,53,1380,75,1410,85.3L1440,96L1440,320L1410,320C1380,320,1320,320,1260,320C1200,320,1140,320,1080,320C1020,320,960,320,900,320C840,320,780,320,720,320C660,320,600,320,540,320C480,320,420,320,360,320C300,320,240,320,180,320C120,320,60,320,30,320L0,320Z"></path></svg>